<?xml version="1.0" standalone="no"?>
<!DOCTYPE svg PUBLIC "-//W3C//DTD SVG 20010904//EN"
 "http://www.w3.org/TR/2001/REC-SVG-20010904/DTD/svg10.dtd">
<svg version="1.0" xmlns="http://www.w3.org/2000/svg"
 width="982.000000pt" height="982.000000pt" viewBox="0 0 982.000000 982.000000"
 preserveAspectRatio="xMidYMid meet">
<metadata>
Created by Saba Sakvarelidze. June 29, 2022
</metadata>
<g transform="translate(0.000000,982.000000) scale(0.100000,-0.100000)"
fill="#000000" stroke="none">
<path d="M4575 9810 c-399 -19 -924 -130 -1341 -284 -666 -245 -1231 -603
-1743 -1101 -767 -747 -1242 -1665 -1427 -2753 -37 -218 -44 -348 -44 -762 0
-494 11 -624 86 -985 147 -706 450 -1385 868 -1945 257 -344 610 -702 961
-975 598 -465 1341 -790 2130 -934 258 -48 296 -51 582 -61 353 -11 772 2 951
30 844 131 1625 453 2265 934 631 475 1110 1054 1457 1761 235 480 384 952
472 1505 22 138 23 169 23 670 0 501 -1 532 -23 670 -141 878 -445 1617 -932
2265 -159 212 -253 319 -465 531 -416 417 -828 713 -1330 955 -496 238 -1101
414 -1582 459 -108 10 -650 31 -723 28 -19 -1 -102 -4 -185 -8z m1010 -2859
c69 -6 70 -7 67 -33 -3 -29 -282 -987 -733 -2513 -160 -545 -294 -1000 -297
-1012 -9 -43 -26 -48 -205 -52 -93 -1 -198 0 -232 4 l-63 6 20 72 c53 191 826
2809 980 3322 28 94 58 178 66 187 8 9 33 19 56 21 67 6 265 5 341 -2z m-1845
-1021 c0 -118 -3 -225 -6 -238 -5 -16 -23 -31 -58 -46 -171 -78 -566 -252
-921 -408 -542 -238 -787 -348 -803 -363 -16 -14 141 -87 1131 -520 l657 -289
0 -253 0 -254 -22 7 c-34 10 -988 452 -1956 904 l-392 184 2 215 3 215 490
229 c549 256 1519 703 1725 796 97 43 137 57 142 48 4 -7 8 -109 8 -227z
m2626 71 c192 -87 603 -275 914 -418 311 -143 671 -309 800 -368 129 -60 242
-114 250 -122 13 -12 15 -48 12 -231 -2 -119 -6 -220 -10 -223 -7 -7 -732
-341 -1777 -818 l-570 -260 -3 251 c-1 139 1 255 5 259 5 3 307 135 673 292
820 352 1133 490 1137 504 5 13 -375 182 -1199 534 l-618 264 0 225 c0 233 4
270 25 270 7 0 169 -71 361 -159z"/>
</g>
</svg>
